<svg style="object-fit:cover" id="my-svg" version="1" baseProfile="full" width="100%" height="100%" viewBox="0 0 1366 667" xmlns="http://www.w3.org/2000/svg"><rect width="1366" height="667" fill="#000"/><defs><linearGradient id="linear-gradient" x1="0" x2="1" y1="0" y2="1"><stop offset="0%" stop-color="#3912ca90"/><stop offset="100%" stop-color="#03071c90"/></linearGradient></defs><path transform="scale(1, 1)" style="transform-origin:center" d="M 0,667 V 0,367 C 91.76190476190476,409.6071428571429 183.52380952380952,452.2142857142857 299,465 C 414.4761904761905,477.7857142857143 553.6666666666667,460.75 674,443 C 794.3333333333333,425.25 895.8095238095239,406.7857142857143 1008,394 C 1120.1904761904761,381.2142857142857 1243.095238095238,374.1071428571429 1366,367 C 1366,367 1366,667 1366,667 Z" stroke="none" stroke-width="0" fill="url(#linear-gradient)" class="transition-all duration-300 ease-in-out delay-150"/><defs><linearGradient id="linear-gradient" x1="0" x2="1" y1="0" y2="1"><stop offset="0%" stop-color="#3912caff"/><stop offset="100%" stop-color="#03071cff"/></linearGradient></defs><path transform="scale(1, 1)" style="transform-origin:center" d="M 0,667 V 0,550 C 99.58333333333331,589.1428571428571 199.16666666666663,628.2857142857143 306,652 C 412.83333333333337,675.7142857142857 526.9166666666667,684 662,673 C 797.0833333333333,662 953.1666666666665,631.7142857142858 1074,608 C 1194.8333333333335,584.2857142857142 1280.4166666666667,567.1428571428571 1366,550 C 1366,550 1366,667 1366,667 Z" stroke="none" stroke-width="0" fill="url(#linear-gradient)" class="transition-all duration-300 ease-in-out delay-150"/></svg>